<?xml version="1.0" encoding="UTF-8" standalone="no"?>
<!-- Generator: Adobe Illustrator 22.1.0, SVG Export Plug-In . SVG Version: 6.00 Build 0)  -->

<svg
   version="1.1"
   id="Camada_1"
   x="0px"
   y="0px"
   viewBox="0 0 573.90003 216"
   xml:space="preserve"
   sodipodi:docname="proec-isologo.svg"
   inkscape:version="1.3 (0e150ed6c4, 2023-07-21)"
   width="573.90002"
   height="216"
   xmlns:inkscape="http://www.inkscape.org/namespaces/inkscape"
   xmlns:sodipodi="http://sodipodi.sourceforge.net/DTD/sodipodi-0.dtd"
   xmlns="http://www.w3.org/2000/svg"
   xmlns:svg="http://www.w3.org/2000/svg"><defs
   id="defs3"><style
     id="style1-2">      .cls-1, .cls-2 {        fill: #fff;      }      .cls-2 {        fill-rule: evenodd;      }      .cls-3 {        fill: #801e21;      }    </style></defs><sodipodi:namedview
   id="namedview3"
   pagecolor="#505050"
   bordercolor="#ffffff"
   borderopacity="1"
   inkscape:showpageshadow="0"
   inkscape:pageopacity="0"
   inkscape:pagecheckerboard="1"
   inkscape:deskcolor="#505050"
   inkscape:zoom="1.2451521"
   inkscape:cx="106.81426"
   inkscape:cy="92.759752"
   inkscape:window-width="1920"
   inkscape:window-height="1017"
   inkscape:window-x="-8"
   inkscape:window-y="-8"
   inkscape:window-maximized="1"
   inkscape:current-layer="Camada_1" />&#10;<style
   type="text/css"
   id="style1">&#10;	.st0{fill-rule:evenodd;clip-rule:evenodd;fill:#C3161C;}&#10;	.st1{fill-rule:evenodd;clip-rule:evenodd;fill:#FFFFFF;}&#10;	.st2{fill-rule:evenodd;clip-rule:evenodd;fill:#231F20;}&#10;</style>&#10;&#10;<g
   id="g46"
   transform="matrix(1.4513026,0,0,1.3599251,0.07967086,6.4547932)"><g
     id="g37"><path
       d="m 16.43,95.62 c -0.58,1.05 -1.48,1.9 -2.69,2.54 -1.21,0.65 -2.71,0.97 -4.5,0.97 H 5.93 V 107 H 0.59 V 85.08 h 8.65 c 1.75,0 3.23,0.3 4.43,0.91 1.21,0.6 2.11,1.44 2.72,2.5 0.6,1.06 0.91,2.28 0.91,3.65 0,1.27 -0.29,2.43 -0.87,3.48 z m -5.31,-1.46 c 0.5,-0.48 0.75,-1.16 0.75,-2.03 0,-0.87 -0.25,-1.55 -0.75,-2.03 -0.5,-0.48 -1.26,-0.72 -2.28,-0.72 h -2.9 v 5.5 h 2.9 c 1.02,0 1.78,-0.24 2.28,-0.72 z"
       id="path1-7" /><path
       d="m 27.77,90.21 c 0.94,-0.55 1.98,-0.83 3.12,-0.83 v 5.65 h -1.47 c -1.33,0 -2.33,0.29 -3,0.86 -0.67,0.57 -1,1.58 -1,3.01 v 8.09 H 20.08 V 89.57 h 5.34 v 2.9 c 0.62,-0.96 1.41,-1.71 2.34,-2.26 z"
       id="path2-2" /><path
       d="m 36.78,106.15 c -1.36,-0.73 -2.44,-1.77 -3.22,-3.12 -0.78,-1.35 -1.17,-2.93 -1.17,-4.75 0,-1.82 0.4,-3.37 1.19,-4.73 0.79,-1.36 1.87,-2.41 3.25,-3.14 1.37,-0.73 2.91,-1.09 4.62,-1.09 1.71,0 3.25,0.36 4.62,1.09 1.37,0.73 2.46,1.78 3.25,3.14 0.79,1.36 1.19,2.94 1.19,4.73 0,1.79 -0.4,3.37 -1.2,4.73 -0.8,1.36 -1.89,2.41 -3.28,3.14 -1.38,0.73 -2.93,1.09 -4.64,1.09 -1.71,0 -3.24,-0.36 -4.61,-1.09 z m 7.21,-4.65 c 0.72,-0.75 1.08,-1.82 1.08,-3.22 0,-1.4 -0.35,-2.47 -1.05,-3.22 -0.7,-0.75 -1.56,-1.12 -2.58,-1.12 -1.02,0 -1.9,0.37 -2.59,1.11 -0.69,0.74 -1.03,1.82 -1.03,3.23 0,1.41 0.34,2.47 1.01,3.22 0.68,0.75 1.52,1.12 2.54,1.12 1.02,0 1.89,-0.37 2.61,-1.12 z m 1.51,-16.39 -7.53,3.15 v -3.68 l 7.53,-3.62 z"
       id="path3-3" /><path
       d="m 66.77,93.82 v 4.43 H 53.03 v -4.43 z"
       id="path4" /><path
       d="M 82.63,107 78.07,98.73 H 76.79 V 107 H 71.45 V 85.08 h 8.96 c 1.73,0 3.2,0.3 4.42,0.91 1.22,0.61 2.13,1.43 2.73,2.48 0.6,1.05 0.91,2.22 0.91,3.51 0,1.46 -0.41,2.76 -1.23,3.9 -0.82,1.14 -2.04,1.96 -3.64,2.44 L 88.66,107 Z M 76.79,94.94 h 3.31 c 0.98,0 1.71,-0.24 2.2,-0.72 0.49,-0.48 0.73,-1.16 0.73,-2.03 0,-0.87 -0.24,-1.49 -0.73,-1.97 -0.49,-0.48 -1.22,-0.72 -2.2,-0.72 h -3.31 v 5.43 0 z"
       id="path5" /><path
       d="M 108.14,99.57 H 96.06 c 0.08,1.08 0.43,1.91 1.05,2.48 0.61,0.57 1.37,0.86 2.26,0.86 1.33,0 2.26,-0.56 2.78,-1.69 h 5.68 c -0.29,1.14 -0.82,2.17 -1.58,3.09 -0.76,0.92 -1.71,1.63 -2.86,2.15 -1.15,0.52 -2.43,0.78 -3.84,0.78 -1.71,0 -3.23,-0.36 -4.56,-1.09 -1.33,-0.73 -2.37,-1.77 -3.12,-3.12 -0.75,-1.35 -1.12,-2.93 -1.12,-4.75 0,-1.82 0.37,-3.39 1.11,-4.75 0.74,-1.35 1.77,-2.39 3.11,-3.12 1.33,-0.73 2.86,-1.09 4.59,-1.09 1.73,0 3.18,0.35 4.5,1.06 1.31,0.71 2.34,1.72 3.08,3.03 0.74,1.31 1.11,2.84 1.11,4.59 0,0.5 -0.03,1.02 -0.09,1.56 h -0.02 z m -5.37,-2.97 c 0,-0.92 -0.31,-1.64 -0.94,-2.19 -0.62,-0.54 -1.41,-0.81 -2.34,-0.81 -0.93,0 -1.65,0.26 -2.26,0.78 -0.61,0.52 -0.99,1.26 -1.14,2.22 z"
       id="path6" /><path
       d="m 111.44,86.93 c -0.59,-0.55 -0.89,-1.23 -0.89,-2.04 0,-0.81 0.3,-1.53 0.89,-2.08 0.59,-0.55 1.36,-0.83 2.3,-0.83 0.94,0 1.67,0.28 2.26,0.83 0.59,0.55 0.89,1.24 0.89,2.08 0,0.84 -0.3,1.49 -0.89,2.04 -0.59,0.55 -1.35,0.83 -2.26,0.83 -0.91,0 -1.7,-0.28 -2.3,-0.83 z m 4.94,2.64 v 17.42 h -5.34 V 89.57 Z"
       id="path7" /><path
       d="M 129.97,102.47 V 107 h -2.72 c -1.94,0 -3.45,-0.47 -4.53,-1.42 -1.08,-0.95 -1.62,-2.49 -1.62,-4.64 v -6.93 h -2.12 v -4.43 h 2.12 v -4.25 h 5.34 v 4.25 h 3.5 v 4.43 h -3.5 v 7 c 0,0.52 0.12,0.9 0.37,1.12 0.25,0.23 0.67,0.34 1.25,0.34 z"
       id="path8" /><path
       d="m 136.26,106.15 c -1.36,-0.73 -2.44,-1.77 -3.22,-3.12 -0.78,-1.35 -1.17,-2.93 -1.17,-4.75 0,-1.82 0.4,-3.37 1.19,-4.73 0.79,-1.36 1.87,-2.41 3.25,-3.14 1.37,-0.73 2.91,-1.09 4.62,-1.09 1.71,0 3.25,0.36 4.62,1.09 1.37,0.73 2.46,1.78 3.25,3.14 0.79,1.36 1.19,2.94 1.19,4.73 0,1.79 -0.4,3.37 -1.2,4.73 -0.8,1.36 -1.89,2.41 -3.28,3.14 -1.38,0.73 -2.93,1.09 -4.64,1.09 -1.71,0 -3.24,-0.36 -4.61,-1.09 z m 7.21,-4.65 c 0.72,-0.75 1.08,-1.82 1.08,-3.22 0,-1.4 -0.35,-2.47 -1.05,-3.22 -0.7,-0.75 -1.56,-1.12 -2.58,-1.12 -1.02,0 -1.9,0.37 -2.59,1.11 -0.69,0.74 -1.03,1.82 -1.03,3.23 0,1.41 0.34,2.47 1.01,3.22 0.68,0.75 1.52,1.12 2.54,1.12 1.02,0 1.89,-0.37 2.61,-1.12 z"
       id="path9" /><path
       d="m 160.51,90.21 c 0.94,-0.55 1.98,-0.83 3.12,-0.83 v 5.65 h -1.47 c -1.33,0 -2.33,0.29 -3,0.86 -0.67,0.57 -1,1.58 -1,3.01 v 8.09 h -5.34 V 89.57 h 5.34 v 2.9 c 0.62,-0.96 1.41,-1.71 2.34,-2.26 v 0 z"
       id="path10" /><path
       d="m 166.58,86.93 c -0.59,-0.55 -0.89,-1.23 -0.89,-2.04 0,-0.81 0.3,-1.53 0.89,-2.08 0.59,-0.55 1.36,-0.83 2.3,-0.83 0.94,0 1.67,0.28 2.26,0.83 0.59,0.55 0.89,1.24 0.89,2.08 0,0.84 -0.3,1.49 -0.89,2.04 -0.59,0.55 -1.35,0.83 -2.26,0.83 -0.91,0 -1.7,-0.28 -2.3,-0.83 z m 4.95,2.64 v 17.42 h -5.34 V 89.57 Z"
       id="path11" /><path
       d="m 175.35,93.54 c 0.68,-1.35 1.6,-2.39 2.76,-3.12 1.17,-0.73 2.47,-1.09 3.9,-1.09 1.23,0 2.31,0.25 3.23,0.75 0.93,0.5 1.64,1.16 2.14,1.97 v -2.47 h 5.34 V 107 h -5.34 v -2.47 c -0.52,0.81 -1.24,1.47 -2.17,1.97 -0.93,0.5 -2,0.75 -3.23,0.75 -1.42,0 -2.71,-0.37 -3.87,-1.11 -1.17,-0.74 -2.09,-1.79 -2.76,-3.15 -0.68,-1.36 -1.01,-2.94 -1.01,-4.73 0,-1.79 0.34,-3.36 1.01,-4.71 v 0 z m 10.93,1.59 c -0.74,-0.77 -1.64,-1.16 -2.7,-1.16 -1.06,0 -1.96,0.38 -2.7,1.14 -0.74,0.76 -1.11,1.81 -1.11,3.14 0,1.33 0.37,2.39 1.11,3.17 0.74,0.78 1.64,1.17 2.7,1.17 1.06,0 1.96,-0.39 2.7,-1.16 0.74,-0.77 1.11,-1.82 1.11,-3.15 0,-1.33 -0.37,-2.38 -1.11,-3.15 z"
       id="path12" /><path
       d="m 203.18,93.54 c 0.68,-1.35 1.6,-2.39 2.76,-3.12 1.17,-0.73 2.47,-1.09 3.9,-1.09 1.15,0 2.19,0.24 3.14,0.72 0.95,0.48 1.69,1.12 2.23,1.94 V 83.9 h 5.34 v 23.11 h -5.34 v -2.5 c -0.5,0.83 -1.21,1.5 -2.14,2 -0.93,0.5 -2,0.75 -3.23,0.75 -1.44,0 -2.74,-0.37 -3.9,-1.11 -1.17,-0.74 -2.09,-1.79 -2.76,-3.15 -0.68,-1.36 -1.01,-2.94 -1.01,-4.73 0,-1.79 0.34,-3.36 1.01,-4.71 z m 10.92,1.59 c -0.74,-0.77 -1.64,-1.16 -2.7,-1.16 -1.06,0 -1.96,0.38 -2.7,1.14 -0.74,0.76 -1.11,1.81 -1.11,3.14 0,1.33 0.37,2.39 1.11,3.17 0.74,0.78 1.64,1.17 2.7,1.17 1.06,0 1.96,-0.39 2.7,-1.16 0.74,-0.77 1.11,-1.82 1.11,-3.15 0,-1.33 -0.37,-2.38 -1.11,-3.15 z"
       id="path13" /><path
       d="m 240.76,99.57 h -12.08 c 0.08,1.08 0.43,1.91 1.05,2.48 0.61,0.57 1.37,0.86 2.26,0.86 1.33,0 2.26,-0.56 2.78,-1.69 h 5.68 c -0.29,1.14 -0.82,2.17 -1.58,3.09 -0.76,0.92 -1.71,1.63 -2.86,2.15 -1.15,0.52 -2.43,0.78 -3.84,0.78 -1.71,0 -3.23,-0.36 -4.56,-1.09 -1.33,-0.73 -2.37,-1.77 -3.12,-3.12 -0.75,-1.35 -1.12,-2.93 -1.12,-4.75 0,-1.82 0.37,-3.39 1.11,-4.75 0.74,-1.35 1.77,-2.39 3.11,-3.12 1.33,-0.73 2.86,-1.09 4.59,-1.09 1.73,0 3.18,0.35 4.5,1.06 1.31,0.71 2.34,1.72 3.08,3.03 0.74,1.31 1.11,2.84 1.11,4.59 0,0.5 -0.03,1.02 -0.09,1.56 h -0.02 z m -5.38,-2.97 c 0,-0.92 -0.31,-1.64 -0.94,-2.19 -0.62,-0.54 -1.41,-0.81 -2.34,-0.81 -0.93,0 -1.65,0.26 -2.26,0.78 -0.61,0.52 -0.99,1.26 -1.14,2.22 z"
       id="path14" /><path
       d="m 255.62,89.35 v 4.43 h 7.15 v 4.12 h -7.15 v 4.81 h 8.09 v 4.28 H 250.28 V 85.07 h 13.43 v 4.28 z"
       id="path15" /><path
       d="m 277.48,107 -3.34,-4.84 -2.81,4.84 h -5.78 l 5.75,-8.9 -5.9,-8.52 h 6 l 3.34,4.81 2.81,-4.81 h 5.78 l -5.84,8.77 6,8.65 z"
       id="path16" /><path
       d="M 295.24,102.47 V 107 h -2.72 c -1.94,0 -3.45,-0.47 -4.53,-1.42 -1.08,-0.95 -1.62,-2.49 -1.62,-4.64 v -6.93 h -2.12 v -4.43 h 2.12 v -4.25 h 5.34 v 4.25 h 3.5 v 4.43 h -3.5 v 7 c 0,0.52 0.12,0.9 0.37,1.12 0.25,0.23 0.67,0.34 1.25,0.34 z"
       id="path17" /><path
       d="m 314.54,99.57 h -12.08 c 0.08,1.08 0.43,1.91 1.05,2.48 0.61,0.57 1.37,0.86 2.26,0.86 1.33,0 2.26,-0.56 2.78,-1.69 h 5.68 c -0.29,1.14 -0.82,2.17 -1.58,3.09 -0.76,0.92 -1.71,1.63 -2.86,2.15 -1.15,0.52 -2.43,0.78 -3.84,0.78 -1.71,0 -3.23,-0.36 -4.56,-1.09 -1.33,-0.73 -2.37,-1.77 -3.12,-3.12 -0.75,-1.35 -1.12,-2.93 -1.12,-4.75 0,-1.82 0.37,-3.39 1.11,-4.75 0.74,-1.35 1.77,-2.39 3.11,-3.12 1.33,-0.73 2.86,-1.09 4.59,-1.09 1.73,0 3.18,0.35 4.5,1.06 1.31,0.71 2.34,1.72 3.08,3.03 0.74,1.31 1.11,2.84 1.11,4.59 0,0.5 -0.03,1.02 -0.09,1.56 h -0.02 z m -5.37,-2.97 c 0,-0.92 -0.31,-1.64 -0.94,-2.19 -0.62,-0.54 -1.41,-0.81 -2.34,-0.81 -0.93,0 -1.65,0.26 -2.26,0.78 -0.61,0.52 -0.99,1.26 -1.14,2.22 z"
       id="path18" /><path
       d="m 332.95,91.37 c 1.22,1.32 1.83,3.14 1.83,5.45 V 107 h -5.31 v -9.46 c 0,-1.17 -0.3,-2.07 -0.91,-2.72 -0.6,-0.65 -1.42,-0.97 -2.44,-0.97 -1.02,0 -1.83,0.32 -2.44,0.97 -0.6,0.65 -0.91,1.55 -0.91,2.72 V 107 h -5.34 V 89.58 h 5.34 v 2.31 c 0.54,-0.77 1.27,-1.38 2.19,-1.83 0.92,-0.45 1.95,-0.67 3.09,-0.67 2.04,0 3.67,0.66 4.89,1.98 v 0 z"
       id="path19" /><path
       d="m 341.52,106.47 c -1.19,-0.52 -2.12,-1.23 -2.81,-2.14 -0.69,-0.91 -1.07,-1.92 -1.16,-3.04 h 5.28 c 0.06,0.6 0.34,1.09 0.84,1.47 0.5,0.38 1.11,0.56 1.84,0.56 0.67,0 1.18,-0.13 1.55,-0.39 0.36,-0.26 0.55,-0.6 0.55,-1.01 0,-0.5 -0.26,-0.87 -0.78,-1.11 -0.52,-0.24 -1.36,-0.5 -2.53,-0.8 -1.25,-0.29 -2.29,-0.6 -3.12,-0.92 -0.83,-0.32 -1.55,-0.83 -2.15,-1.53 -0.6,-0.7 -0.91,-1.64 -0.91,-2.83 0,-1 0.28,-1.91 0.83,-2.73 0.55,-0.82 1.36,-1.47 2.44,-1.95 1.07,-0.48 2.35,-0.72 3.83,-0.72 2.19,0 3.91,0.54 5.17,1.62 1.26,1.08 1.98,2.52 2.17,4.31 h -4.93 c -0.08,-0.6 -0.35,-1.08 -0.8,-1.44 -0.45,-0.35 -1.04,-0.53 -1.76,-0.53 -0.62,0 -1.1,0.12 -1.44,0.36 -0.33,0.24 -0.5,0.57 -0.5,0.98 0,0.5 0.27,0.87 0.8,1.12 0.53,0.25 1.36,0.5 2.48,0.75 1.29,0.33 2.34,0.66 3.15,0.98 0.81,0.32 1.52,0.84 2.14,1.56 0.61,0.72 0.93,1.68 0.95,2.89 0,1.02 -0.29,1.93 -0.86,2.73 -0.57,0.8 -1.4,1.43 -2.47,1.89 -1.07,0.46 -2.32,0.69 -3.73,0.69 -1.52,0 -2.87,-0.26 -4.06,-0.78 h -0.01 z"
       id="path20" /><path
       d="m 355.87,93.54 c 0.68,-1.35 1.6,-2.39 2.76,-3.12 1.17,-0.73 2.47,-1.09 3.9,-1.09 1.23,0 2.31,0.25 3.23,0.75 0.93,0.5 1.64,1.16 2.14,1.97 v -2.47 h 5.34 V 107 h -5.34 v -2.47 c -0.52,0.81 -1.24,1.47 -2.17,1.97 -0.93,0.5 -2,0.75 -3.23,0.75 -1.42,0 -2.71,-0.37 -3.87,-1.11 -1.17,-0.74 -2.09,-1.79 -2.76,-3.15 -0.68,-1.36 -1.01,-2.94 -1.01,-4.73 0,-1.79 0.34,-3.36 1.01,-4.71 v 0 z m 6.88,-10.06 c 0.46,0 0.86,0.07 1.2,0.2 0.34,0.13 0.77,0.34 1.26,0.61 0.37,0.21 0.68,0.36 0.91,0.45 0.23,0.09 0.47,0.14 0.72,0.14 0.77,0 1.22,-0.47 1.34,-1.41 h 2.75 c -0.5,3.08 -1.94,4.62 -4.31,4.62 -0.46,0 -0.86,-0.07 -1.2,-0.2 -0.34,-0.13 -0.77,-0.34 -1.26,-0.61 -0.38,-0.21 -0.68,-0.36 -0.91,-0.45 -0.23,-0.09 -0.47,-0.14 -0.72,-0.14 -0.77,0 -1.23,0.47 -1.37,1.41 h -2.72 c 0.5,-3.08 1.94,-4.62 4.31,-4.62 z m 4.05,11.65 c -0.74,-0.77 -1.64,-1.16 -2.7,-1.16 -1.06,0 -1.96,0.38 -2.7,1.14 -0.74,0.76 -1.11,1.81 -1.11,3.14 0,1.33 0.37,2.39 1.11,3.17 0.74,0.78 1.64,1.17 2.7,1.17 1.06,0 1.96,-0.39 2.7,-1.16 0.74,-0.77 1.11,-1.82 1.11,-3.15 0,-1.33 -0.37,-2.38 -1.11,-3.15 z"
       id="path21" /><path
       d="m 380.44,106.15 c -1.36,-0.73 -2.44,-1.77 -3.22,-3.12 -0.78,-1.35 -1.17,-2.93 -1.17,-4.75 0,-1.82 0.4,-3.37 1.19,-4.73 0.79,-1.36 1.87,-2.41 3.25,-3.14 1.37,-0.73 2.91,-1.09 4.62,-1.09 1.71,0 3.25,0.36 4.62,1.09 1.37,0.73 2.46,1.78 3.25,3.14 0.79,1.36 1.19,2.94 1.19,4.73 0,1.79 -0.4,3.37 -1.2,4.73 -0.8,1.36 -1.89,2.41 -3.28,3.14 -1.38,0.73 -2.93,1.09 -4.64,1.09 -1.71,0 -3.24,-0.36 -4.61,-1.09 z m 7.21,-4.65 c 0.72,-0.75 1.08,-1.82 1.08,-3.22 0,-1.4 -0.35,-2.47 -1.05,-3.22 -0.7,-0.75 -1.56,-1.12 -2.58,-1.12 -1.02,0 -1.9,0.37 -2.59,1.11 -0.69,0.74 -1.03,1.82 -1.03,3.23 0,1.41 0.34,2.47 1.01,3.22 0.68,0.75 1.52,1.12 2.54,1.12 1.02,0 1.89,-0.37 2.61,-1.12 z"
       id="path22" /><path
       d="m 66.39,115.76 v 4.43 h 7.15 v 4.12 h -7.15 v 4.81 h 8.09 v 4.28 H 61.05 v -21.92 h 13.43 v 4.28 z"
       id="path23" /><path
       d="m 80.98,132.88 c -1.19,-0.52 -2.12,-1.23 -2.81,-2.14 -0.69,-0.91 -1.07,-1.92 -1.16,-3.04 h 5.28 c 0.06,0.6 0.34,1.09 0.84,1.47 0.5,0.38 1.11,0.56 1.84,0.56 0.67,0 1.18,-0.13 1.55,-0.39 0.36,-0.26 0.55,-0.6 0.55,-1.01 0,-0.5 -0.26,-0.87 -0.78,-1.11 -0.52,-0.24 -1.36,-0.5 -2.53,-0.8 -1.25,-0.29 -2.29,-0.6 -3.12,-0.92 -0.83,-0.32 -1.55,-0.83 -2.15,-1.53 -0.6,-0.7 -0.91,-1.64 -0.91,-2.83 0,-1 0.28,-1.91 0.83,-2.73 0.55,-0.82 1.36,-1.47 2.44,-1.95 1.07,-0.48 2.35,-0.72 3.83,-0.72 2.19,0 3.91,0.54 5.17,1.62 1.26,1.08 1.98,2.52 2.17,4.31 h -4.93 c -0.08,-0.6 -0.35,-1.08 -0.8,-1.44 -0.45,-0.35 -1.04,-0.53 -1.76,-0.53 -0.62,0 -1.1,0.12 -1.44,0.36 -0.33,0.24 -0.5,0.57 -0.5,0.98 0,0.5 0.27,0.87 0.8,1.12 0.53,0.25 1.36,0.5 2.48,0.75 1.29,0.33 2.34,0.66 3.15,0.98 0.81,0.32 1.52,0.84 2.14,1.56 0.61,0.72 0.93,1.68 0.95,2.89 0,1.02 -0.29,1.93 -0.86,2.73 -0.57,0.8 -1.4,1.43 -2.47,1.89 -1.07,0.46 -2.32,0.69 -3.73,0.69 -1.52,0 -2.87,-0.26 -4.06,-0.78 h -0.01 z"
       id="path24" /><path
       d="m 102.86,116.48 c 0.92,-0.5 1.99,-0.75 3.22,-0.75 1.44,0 2.74,0.36 3.9,1.09 1.17,0.73 2.09,1.77 2.76,3.12 0.68,1.35 1.02,2.92 1.02,4.71 0,1.79 -0.34,3.37 -1.02,4.73 -0.68,1.36 -1.6,2.42 -2.76,3.15 -1.17,0.74 -2.47,1.11 -3.9,1.11 -1.21,0 -2.27,-0.25 -3.2,-0.75 -0.93,-0.5 -1.65,-1.14 -2.17,-1.94 v 10.74 h -5.34 v -25.73 h 5.34 v 2.47 c 0.52,-0.81 1.24,-1.47 2.15,-1.97 z m 4.36,5.05 c -0.74,-0.76 -1.65,-1.14 -2.73,-1.14 -1.08,0 -1.96,0.39 -2.7,1.16 -0.74,0.77 -1.11,1.82 -1.11,3.15 0,1.33 0.37,2.38 1.11,3.15 0.74,0.77 1.64,1.16 2.7,1.16 1.06,0 1.97,-0.39 2.72,-1.17 0.75,-0.78 1.12,-1.84 1.12,-3.17 0,-1.33 -0.37,-2.38 -1.11,-3.14 z"
       id="path25" /><path
       d="m 119.9,132.56 c -1.36,-0.73 -2.44,-1.77 -3.22,-3.12 -0.78,-1.35 -1.17,-2.93 -1.17,-4.75 0,-1.82 0.4,-3.37 1.19,-4.73 0.79,-1.36 1.87,-2.41 3.25,-3.14 1.37,-0.73 2.91,-1.09 4.62,-1.09 1.71,0 3.25,0.36 4.62,1.09 1.37,0.73 2.46,1.78 3.25,3.14 0.79,1.36 1.19,2.94 1.19,4.73 0,1.79 -0.4,3.37 -1.2,4.73 -0.8,1.36 -1.89,2.41 -3.28,3.14 -1.38,0.73 -2.93,1.09 -4.64,1.09 -1.71,0 -3.24,-0.36 -4.61,-1.09 z m 7.21,-4.65 c 0.72,-0.75 1.08,-1.82 1.08,-3.22 0,-1.4 -0.35,-2.47 -1.05,-3.22 -0.7,-0.75 -1.56,-1.12 -2.58,-1.12 -1.02,0 -1.9,0.37 -2.59,1.11 -0.69,0.74 -1.03,1.82 -1.03,3.23 0,1.41 0.34,2.47 1.01,3.22 0.68,0.75 1.52,1.12 2.54,1.12 1.02,0 1.89,-0.37 2.61,-1.12 z"
       id="path26" /><path
       d="m 144.14,116.62 c 0.94,-0.55 1.98,-0.83 3.12,-0.83 v 5.65 h -1.47 c -1.33,0 -2.33,0.29 -3,0.86 -0.67,0.57 -1,1.58 -1,3.01 v 8.09 h -5.34 v -17.42 h 5.34 v 2.9 c 0.62,-0.96 1.41,-1.71 2.34,-2.26 v 0 z"
       id="path27" /><path
       d="m 159.54,128.88 v 4.53 h -2.72 c -1.94,0 -3.45,-0.47 -4.53,-1.42 -1.08,-0.95 -1.62,-2.49 -1.62,-4.64 v -6.93 h -2.12 v -4.43 h 2.12 v -4.25 h 5.34 v 4.25 h 3.5 v 4.43 h -3.5 v 7 c 0,0.52 0.12,0.9 0.37,1.12 0.25,0.23 0.67,0.34 1.25,0.34 z"
       id="path28" /><path
       d="m 178.84,125.98 h -12.08 c 0.08,1.08 0.43,1.91 1.05,2.48 0.61,0.57 1.37,0.86 2.26,0.86 1.33,0 2.26,-0.56 2.78,-1.69 h 5.68 c -0.29,1.14 -0.82,2.17 -1.58,3.09 -0.76,0.92 -1.71,1.63 -2.86,2.15 -1.15,0.52 -2.43,0.78 -3.84,0.78 -1.71,0 -3.23,-0.36 -4.56,-1.09 -1.33,-0.73 -2.37,-1.77 -3.12,-3.12 -0.75,-1.35 -1.12,-2.93 -1.12,-4.75 0,-1.82 0.37,-3.39 1.11,-4.75 0.74,-1.35 1.77,-2.39 3.11,-3.12 1.33,-0.73 2.86,-1.09 4.59,-1.09 1.73,0 3.18,0.35 4.5,1.06 1.31,0.71 2.34,1.72 3.08,3.03 0.74,1.31 1.11,2.84 1.11,4.59 0,0.5 -0.03,1.02 -0.09,1.56 h -0.02 z m -5.38,-2.97 c 0,-0.92 -0.31,-1.64 -0.94,-2.19 -0.62,-0.54 -1.41,-0.81 -2.34,-0.81 -0.93,0 -1.65,0.26 -2.26,0.78 -0.61,0.52 -0.99,1.26 -1.14,2.22 z"
       id="path29" /><path
       d="m 204.69,125.98 h -12.08 c 0.08,1.08 0.43,1.91 1.05,2.48 0.61,0.57 1.37,0.86 2.26,0.86 1.33,0 2.26,-0.56 2.78,-1.69 h 5.68 c -0.29,1.14 -0.82,2.17 -1.58,3.09 -0.76,0.92 -1.71,1.63 -2.86,2.15 -1.15,0.52 -2.43,0.78 -3.84,0.78 -1.71,0 -3.23,-0.36 -4.56,-1.09 -1.33,-0.73 -2.37,-1.77 -3.12,-3.12 -0.75,-1.35 -1.12,-2.93 -1.12,-4.75 0,-1.82 0.37,-3.39 1.11,-4.75 0.74,-1.35 1.77,-2.39 3.11,-3.12 1.33,-0.73 2.86,-1.09 4.59,-1.09 1.73,0 3.18,0.35 4.5,1.06 1.31,0.71 2.34,1.72 3.08,3.03 0.74,1.31 1.11,2.84 1.11,4.59 0,0.5 -0.03,1.02 -0.09,1.56 h -0.02 z m -5.37,-2.97 c 0,-0.92 -0.31,-1.64 -0.94,-2.19 -0.62,-0.54 -1.41,-0.81 -2.34,-0.81 -0.93,0 -1.65,0.26 -2.26,0.78 -0.61,0.52 -0.99,1.26 -1.14,2.22 z"
       id="path30" /><path
       d="m 214.71,116.62 c 0.94,-1.7 2.24,-3.02 3.92,-3.96 1.68,-0.95 3.58,-1.42 5.7,-1.42 2.6,0 4.83,0.69 6.68,2.06 1.85,1.37 3.09,3.25 3.72,5.62 h -5.87 c -0.44,-0.92 -1.06,-1.61 -1.86,-2.09 -0.8,-0.48 -1.71,-0.72 -2.73,-0.72 -1.64,0 -2.98,0.57 -4,1.72 -1.02,1.15 -1.53,2.68 -1.53,4.59 0,1.91 0.51,3.45 1.53,4.59 1.02,1.15 2.35,1.72 4,1.72 1.02,0 1.93,-0.24 2.73,-0.72 0.8,-0.48 1.42,-1.18 1.86,-2.09 h 5.87 c -0.62,2.37 -1.86,4.24 -3.72,5.61 -1.85,1.36 -4.08,2.04 -6.68,2.04 -2.12,0 -4.02,-0.47 -5.7,-1.42 -1.68,-0.95 -2.98,-2.26 -3.92,-3.95 -0.94,-1.69 -1.41,-3.61 -1.41,-5.78 0,-2.17 0.47,-4.1 1.41,-5.79 v 0 z"
       id="path31" /><path
       d="m 255.21,115.98 v 17.42 h -5.34 v -2.37 c -0.54,0.77 -1.28,1.39 -2.2,1.86 -0.93,0.47 -1.95,0.7 -3.08,0.7 -1.33,0 -2.51,-0.3 -3.53,-0.89 -1.02,-0.59 -1.81,-1.45 -2.37,-2.58 -0.56,-1.13 -0.84,-2.45 -0.84,-3.97 v -10.18 h 5.31 v 9.46 c 0,1.17 0.3,2.07 0.91,2.72 0.6,0.65 1.42,0.97 2.44,0.97 1.02,0 1.86,-0.32 2.47,-0.97 0.6,-0.64 0.91,-1.55 0.91,-2.72 v -9.46 h 5.34 -0.02 z"
       id="path32" /><path
       d="m 264.39,110.3 v 23.11 h -5.34 V 110.3 Z"
       id="path33" /><path
       d="m 277.98,128.88 v 4.53 h -2.72 c -1.94,0 -3.45,-0.47 -4.53,-1.42 -1.08,-0.95 -1.62,-2.49 -1.62,-4.64 v -6.93 h -2.12 v -4.43 h 2.12 v -4.25 h 5.34 v 4.25 h 3.5 v 4.43 h -3.5 v 7 c 0,0.52 0.12,0.9 0.37,1.12 0.25,0.23 0.67,0.34 1.25,0.34 z"
       id="path34" /><path
       d="m 298.15,115.98 v 17.42 h -5.34 v -2.37 c -0.54,0.77 -1.28,1.39 -2.2,1.86 -0.93,0.47 -1.95,0.7 -3.08,0.7 -1.33,0 -2.51,-0.3 -3.53,-0.89 -1.02,-0.59 -1.81,-1.45 -2.37,-2.58 -0.56,-1.13 -0.84,-2.45 -0.84,-3.97 v -10.18 h 5.31 v 9.46 c 0,1.17 0.3,2.07 0.91,2.72 0.6,0.65 1.42,0.97 2.44,0.97 1.02,0 1.86,-0.32 2.47,-0.97 0.6,-0.64 0.91,-1.55 0.91,-2.72 v -9.46 h 5.34 -0.02 z"
       id="path35" /><path
       d="m 309.67,116.62 c 0.94,-0.55 1.98,-0.83 3.12,-0.83 v 5.65 h -1.47 c -1.33,0 -2.33,0.29 -3,0.86 -0.67,0.57 -1,1.58 -1,3.01 v 8.09 h -5.34 v -17.42 h 5.34 v 2.9 c 0.62,-0.96 1.41,-1.71 2.34,-2.26 v 0 z"
       id="path36" /><path
       d="m 315.31,119.95 c 0.68,-1.35 1.6,-2.39 2.76,-3.12 1.17,-0.73 2.47,-1.09 3.9,-1.09 1.23,0 2.31,0.25 3.23,0.75 0.93,0.5 1.64,1.16 2.14,1.97 v -2.47 h 5.34 v 17.42 h -5.34 v -2.47 c -0.52,0.81 -1.24,1.47 -2.17,1.97 -0.93,0.5 -2,0.75 -3.23,0.75 -1.42,0 -2.71,-0.37 -3.87,-1.11 -1.17,-0.74 -2.09,-1.79 -2.76,-3.15 -0.68,-1.36 -1.01,-2.94 -1.01,-4.73 0,-1.79 0.34,-3.36 1.01,-4.71 v 0 z m 10.92,1.59 c -0.74,-0.77 -1.64,-1.16 -2.7,-1.16 -1.06,0 -1.96,0.38 -2.7,1.14 -0.74,0.76 -1.11,1.81 -1.11,3.14 0,1.33 0.37,2.39 1.11,3.17 0.74,0.78 1.64,1.17 2.7,1.17 1.06,0 1.96,-0.39 2.7,-1.16 0.74,-0.77 1.11,-1.82 1.11,-3.15 0,-1.33 -0.37,-2.38 -1.11,-3.15 z"
       id="path37" /></g><g
     id="g45"><path
       class="cls-3"
       d="m 162.48,0 h 224.26 c 3.86,0 7,3.14 7,7 v 55.3 c 0,3.86 -3.14,7 -7,7 H 162.48 Z"
       id="path38" /><g
       id="g41"><path
         d="M 16.94,68.05 H 0 V 1.08 h 24.85 c 8.41,0 14.76,1.4 19.06,4.2 4.3,2.8 6.45,6.9 6.45,12.28 v 6.68 c 0,5.42 -2.15,9.53 -6.45,12.33 -4.3,2.8 -10.65,4.2 -19.06,4.2 h -7.91 v 27.27 0 z m 0,-57.4 v 20.6 h 7.91 c 2.89,0 5.04,-0.5 6.45,-1.49 1.41,-1 2.12,-2.62 2.12,-4.86 v -7.94 c 0,-2.27 -0.71,-3.89 -2.12,-4.86 -1.41,-0.96 -3.56,-1.45 -6.45,-1.45 z"
         id="path39" /><path
         d="M 102.9,10.65 H 53.12 V 1.08 H 102.9 Z M 70.05,68.05 H 53.11 V 14.01 h 25.03 c 8.91,0 15.35,1.24 19.34,3.71 3.98,2.48 5.98,6.72 5.98,12.73 v 7.85 c 0,3.27 -0.88,5.71 -2.64,7.33 -1.76,1.62 -4.61,2.94 -8.56,3.97 v 0.19 c 4.01,0.75 6.88,2.27 8.61,4.55 1.72,2.29 2.59,5.49 2.59,9.6 v 4.11 H 86.52 v -4.67 c 0,-3.05 -0.79,-5.18 -2.35,-6.4 -1.57,-1.21 -4.33,-1.82 -8.28,-1.82 h -5.83 v 12.89 z m 0,-44.46 v 22 h 6.21 c 3.45,0 6.02,-0.56 7.72,-1.68 1.69,-1.12 2.54,-2.93 2.54,-5.42 v -7.94 c 0,-2.46 -0.71,-4.23 -2.12,-5.32 -1.41,-1.09 -3.62,-1.63 -6.63,-1.63 h -7.72 z"
         id="path40" /><path
         d="m 106.41,38.86 v -21.2 c 0,-5.26 2.24,-9.34 6.73,-12.24 4.49,-2.9 10.87,-4.34 19.15,-4.34 8.28,0 14.65,1.45 19.1,4.34 4.45,2.9 6.68,6.97 6.68,12.24 v 21.2 c 0,5.26 -2.23,9.34 -6.68,12.24 -4.46,2.9 -10.82,4.34 -19.1,4.34 -8.28,0 -14.67,-1.45 -19.15,-4.34 -4.49,-2.9 -6.73,-6.97 -6.73,-12.24 z M 157.7,68.05 H 106.97 V 58.48 H 157.7 Z M 123.35,16.96 v 22.61 c 0,4.33 2.98,6.49 8.94,6.49 5.96,0 8.85,-2.16 8.85,-6.49 V 16.96 c 0,-4.33 -2.95,-6.49 -8.85,-6.49 -5.9,0 -8.94,2.16 -8.94,6.49 z"
         id="path41" /></g><g
       id="g44"><path
         class="cls-2"
         d="m 367.91,41.01 h 18.28 c 0.14,2.7 0.19,4.45 0.19,5.23 0,4.27 -0.69,7.61 -2.07,10.01 -1.51,2.7 -4.5,4.55 -8.92,5.52 -4.42,0.97 -12.07,1.46 -22.95,1.46 -11.43,0 -19.57,-0.21 -24.41,-0.61 -4.86,-0.4 -8.5,-1.19 -10.98,-2.36 -2.19,-1.05 -3.84,-2.48 -4.92,-4.26 -1.08,-1.79 -1.78,-4.24 -2.11,-7.36 -0.25,-2.51 -0.39,-7.07 -0.39,-13.64 0,-6.57 0.13,-11.05 0.39,-13.89 0.27,-2.84 0.78,-5.05 1.55,-6.63 1.66,-3.51 5.05,-5.8 10.15,-6.84 5.1,-1.04 15.4,-1.57 30.88,-1.57 7.74,0 13.36,0.17 16.87,0.49 3.52,0.33 6.33,0.94 8.41,1.83 2.71,1.19 4.63,2.95 5.76,5.3 1.11,2.34 1.66,5.8 1.66,10.34 0,0.24 -0.03,1.16 -0.09,2.76 h -18.27 c -0.09,-1.83 -0.23,-3.05 -0.37,-3.67 -0.16,-0.62 -0.5,-1.12 -0.99,-1.54 -0.71,-0.55 -2.49,-0.97 -5.32,-1.22 -2.85,-0.26 -7.15,-0.39 -12.93,-0.39 -5.78,0 -9.67,0.11 -11.88,0.35 -2.19,0.22 -3.75,0.68 -4.65,1.36 -1.1,0.8 -1.84,2.18 -2.26,4.09 -0.43,1.93 -0.64,4.98 -0.64,9.16 0,4.18 0.19,7.15 0.57,8.87 0.39,1.72 1.11,2.95 2.2,3.7 1.02,0.73 2.65,1.22 4.9,1.47 2.23,0.24 6.21,0.36 11.89,0.36 7,0 11.67,-0.11 14.01,-0.32 2.32,-0.22 3.9,-0.69 4.72,-1.41 1.08,-0.94 1.65,-3.13 1.71,-6.59 v 0 z"
         id="path42" /><g
         id="g43"><rect
           class="cls-1"
           x="240.03"
           y="49.360001"
           width="63.259998"
           height="13.62"
           id="rect42" /><polygon
           class="cls-2"
           points="303.29,40.17 303.29,27.75 235.27,27.75 231.52,27.75 188.23,27.75 188.23,19.58 233.74,19.58 233.74,6.22 169.82,6.22 169.82,62.98 233.74,62.98 233.74,49.36 188.23,49.36 188.23,40.17 231.52,40.17 235.27,40.17 "
           id="polygon42" /><rect
           class="cls-1"
           x="240.21001"
           y="6.2199998"
           width="63.080002"
           height="13.36"
           id="rect43" /></g></g></g></g></svg>
